<mxfile host="65bd71144e">
    <diagram id="ZTMf6IL_pcXrZ3T1AFQo" name="Page-1">
        <mxGraphModel dx="847" dy="774" grid="1" gridSize="10" guides="1" tooltips="1" connect="1" arrows="1" fold="1" page="1" pageScale="1" pageWidth="10000" pageHeight="10000" math="0" shadow="0">
            <root>
                <mxCell id="0"/>
                <mxCell id="1" parent="0"/>
                <mxCell id="2" value="main" style="shape=umlLifeline;perimeter=lifelinePerimeter;whiteSpace=wrap;html=1;container=1;collapsible=0;recursiveResize=0;outlineConnect=0;" parent="1" vertex="1">
                    <mxGeometry x="150" y="90" width="100" height="1030" as="geometry"/>
                </mxCell>
                <mxCell id="5" value="" style="html=1;points=[];perimeter=orthogonalPerimeter;" parent="2" vertex="1">
                    <mxGeometry x="45" y="70" width="10" height="940" as="geometry"/>
                </mxCell>
                <mxCell id="29" value="" style="fontSize=12;html=1;endArrow=blockThin;endFill=1;" parent="2" target="4" edge="1">
                    <mxGeometry width="160" relative="1" as="geometry">
                        <mxPoint x="55" y="990" as="sourcePoint"/>
                        <mxPoint x="200" y="990" as="targetPoint"/>
                        <Array as="points">
                            <mxPoint x="60.5" y="990"/>
                        </Array>
                    </mxGeometry>
                </mxCell>
                <mxCell id="30" value="destroy_federate" style="edgeLabel;html=1;align=center;verticalAlign=middle;resizable=0;points=[];" parent="29" vertex="1" connectable="0">
                    <mxGeometry x="-0.2541" y="4" relative="1" as="geometry">
                        <mxPoint x="44" as="offset"/>
                    </mxGeometry>
                </mxCell>
                <mxCell id="4" value="wecc_market_fed:OSWTSO" style="shape=umlLifeline;perimeter=lifelinePerimeter;whiteSpace=wrap;html=1;container=1;collapsible=0;recursiveResize=0;outlineConnect=0;size=40;" parent="1" vertex="1">
                    <mxGeometry x="315" y="140" width="185" height="980" as="geometry"/>
                </mxCell>
                <mxCell id="9" value="" style="html=1;points=[];perimeter=orthogonalPerimeter;" parent="4" vertex="1">
                    <mxGeometry x="87.5" y="140" width="10" height="140" as="geometry"/>
                </mxCell>
                <mxCell id="13" value="connect_to_metadataDB" style="edgeStyle=orthogonalEdgeStyle;html=1;align=left;spacingLeft=2;endArrow=block;rounded=0;exitX=0.9;exitY=0.01;exitDx=0;exitDy=0;exitPerimeter=0;" parent="4" source="9" edge="1">
                    <mxGeometry relative="1" as="geometry">
                        <mxPoint x="100" y="154" as="sourcePoint"/>
                        <Array as="points">
                            <mxPoint x="105" y="142"/>
                            <mxPoint x="105" y="140"/>
                            <mxPoint x="155" y="140"/>
                            <mxPoint x="155" y="154"/>
                            <mxPoint x="105" y="154"/>
                        </Array>
                        <mxPoint x="105" y="150" as="targetPoint"/>
                    </mxGeometry>
                </mxCell>
                <mxCell id="15" value="" style="html=1;points=[];perimeter=orthogonalPerimeter;" parent="4" vertex="1">
                    <mxGeometry x="89" y="300" width="10" height="620" as="geometry"/>
                </mxCell>
                <mxCell id="18" value="&lt;font color=&quot;#cc0000&quot;&gt;enter_initialization&lt;/font&gt;" style="edgeStyle=orthogonalEdgeStyle;html=1;align=left;spacingLeft=2;endArrow=block;rounded=0;exitX=0.95;exitY=0.561;exitDx=0;exitDy=0;exitPerimeter=0;entryX=1.3;entryY=0.22;entryDx=0;entryDy=0;entryPerimeter=0;fillColor=#a20025;strokeColor=#6F0000;" parent="4" target="47" edge="1">
                    <mxGeometry relative="1" as="geometry">
                        <mxPoint x="99" y="310.49" as="sourcePoint"/>
                        <Array as="points">
                            <mxPoint x="105" y="311"/>
                            <mxPoint x="161" y="310"/>
                            <mxPoint x="161" y="341"/>
                        </Array>
                        <mxPoint x="100.5" y="338.03" as="targetPoint"/>
                    </mxGeometry>
                </mxCell>
                <mxCell id="19" value="enter_executing_mode" style="edgeStyle=orthogonalEdgeStyle;html=1;align=left;spacingLeft=2;endArrow=block;rounded=0;exitX=0.95;exitY=0.561;exitDx=0;exitDy=0;exitPerimeter=0;entryX=1.1;entryY=0.867;entryDx=0;entryDy=0;entryPerimeter=0;" parent="4" edge="1">
                    <mxGeometry relative="1" as="geometry">
                        <mxPoint x="96" y="426.48" as="sourcePoint"/>
                        <Array as="points">
                            <mxPoint x="102" y="427"/>
                            <mxPoint x="158" y="426"/>
                            <mxPoint x="158" y="454"/>
                        </Array>
                        <mxPoint x="97.5" y="454.02" as="targetPoint"/>
                    </mxGeometry>
                </mxCell>
                <mxCell id="20" value="" style="html=1;points=[];perimeter=orthogonalPerimeter;fillColor=#0050ef;fontColor=#ffffff;strokeColor=#001DBC;" parent="4" vertex="1">
                    <mxGeometry x="96" y="485" width="10" height="425" as="geometry"/>
                </mxCell>
                <mxCell id="21" value="simulate_next_step" style="edgeStyle=orthogonalEdgeStyle;html=1;align=left;spacingLeft=2;endArrow=block;rounded=0;exitX=0.95;exitY=0.561;exitDx=0;exitDy=0;exitPerimeter=0;entryX=0.9;entryY=0.01;entryDx=0;entryDy=0;entryPerimeter=0;" parent="4" target="20" edge="1">
                    <mxGeometry relative="1" as="geometry">
                        <mxPoint x="99" y="475.49" as="sourcePoint"/>
                        <Array as="points">
                            <mxPoint x="105" y="476"/>
                            <mxPoint x="161" y="475"/>
                            <mxPoint x="161" y="487"/>
                        </Array>
                        <mxPoint x="100.5" y="503.03" as="targetPoint"/>
                    </mxGeometry>
                </mxCell>
                <mxCell id="28" value="" style="html=1;points=[];perimeter=orthogonalPerimeter;" parent="4" vertex="1">
                    <mxGeometry x="89" y="930" width="10" height="40" as="geometry"/>
                </mxCell>
                <mxCell id="42" value="create_helics_fed" style="edgeStyle=orthogonalEdgeStyle;html=1;align=left;spacingLeft=2;endArrow=block;rounded=0;exitX=0.95;exitY=0.561;exitDx=0;exitDy=0;exitPerimeter=0;entryX=1.1;entryY=0.867;entryDx=0;entryDy=0;entryPerimeter=0;" parent="4" edge="1">
                    <mxGeometry relative="1" as="geometry">
                        <mxPoint x="97" y="224.49" as="sourcePoint"/>
                        <Array as="points">
                            <mxPoint x="102.5" y="225"/>
                            <mxPoint x="158.5" y="224"/>
                            <mxPoint x="158.5" y="252"/>
                        </Array>
                        <mxPoint x="98.5" y="252.02999999999997" as="targetPoint"/>
                    </mxGeometry>
                </mxCell>
                <mxCell id="44" value="" style="html=1;points=[];perimeter=orthogonalPerimeter;" parent="4" vertex="1">
                    <mxGeometry x="87.5" y="60" width="10" height="70" as="geometry"/>
                </mxCell>
                <mxCell id="46" value="__init__" style="edgeStyle=orthogonalEdgeStyle;html=1;align=left;spacingLeft=2;endArrow=block;rounded=0;exitX=0.519;exitY=0.042;exitDx=0;exitDy=0;exitPerimeter=0;entryX=0.95;entryY=0.129;entryDx=0;entryDy=0;entryPerimeter=0;" parent="4" target="44" edge="1" source="4">
                    <mxGeometry relative="1" as="geometry">
                        <mxPoint x="52" y="41.44999999999999" as="sourcePoint"/>
                        <Array as="points">
                            <mxPoint x="96" y="50"/>
                            <mxPoint x="215" y="50"/>
                            <mxPoint x="215" y="69"/>
                        </Array>
                        <mxPoint x="235" y="80" as="targetPoint"/>
                    </mxGeometry>
                </mxCell>
                <mxCell id="47" value="" style="html=1;points=[];perimeter=orthogonalPerimeter;fillColor=#0050ef;fontColor=#ffffff;strokeColor=#001DBC;" parent="4" vertex="1">
                    <mxGeometry x="95" y="310" width="10" height="100" as="geometry"/>
                </mxCell>
                <mxCell id="92" value="" style="html=1;points=[];perimeter=orthogonalPerimeter;fillColor=#1ba1e2;fontColor=#ffffff;strokeColor=#006EAF;" parent="4" vertex="1">
                    <mxGeometry x="101" y="660" width="10" height="240" as="geometry"/>
                </mxCell>
                <mxCell id="105" value="" style="html=1;points=[];perimeter=orthogonalPerimeter;fillColor=#b1ddf0;strokeColor=#10739e;" parent="4" vertex="1">
                    <mxGeometry x="105" y="740" width="10" height="30" as="geometry"/>
                </mxCell>
                <mxCell id="107" value="" style="html=1;points=[];perimeter=orthogonalPerimeter;fillColor=#b1ddf0;strokeColor=#10739e;" parent="4" vertex="1">
                    <mxGeometry x="105" y="780" width="10" height="50" as="geometry"/>
                </mxCell>
                <mxCell id="110" value="" style="html=1;points=[];perimeter=orthogonalPerimeter;fillColor=#b1ddf0;strokeColor=#10739e;" parent="4" vertex="1">
                    <mxGeometry x="106" y="840" width="10" height="40" as="geometry"/>
                </mxCell>
                <mxCell id="126" value="connect_to_helics_config" style="edgeStyle=orthogonalEdgeStyle;html=1;align=left;spacingLeft=2;endArrow=block;rounded=0;exitX=0.9;exitY=0.01;exitDx=0;exitDy=0;exitPerimeter=0;" parent="4" edge="1">
                    <mxGeometry relative="1" as="geometry">
                        <mxPoint x="97.5" y="171.5" as="sourcePoint"/>
                        <Array as="points">
                            <mxPoint x="106" y="172"/>
                            <mxPoint x="106" y="170"/>
                            <mxPoint x="156" y="170"/>
                            <mxPoint x="156" y="184"/>
                            <mxPoint x="106" y="184"/>
                        </Array>
                        <mxPoint x="106" y="180" as="targetPoint"/>
                    </mxGeometry>
                </mxCell>
                <mxCell id="26" value="update_internal_model" style="edgeStyle=orthogonalEdgeStyle;html=1;align=left;spacingLeft=2;endArrow=block;rounded=0;exitX=1.3;exitY=0.381;exitDx=0;exitDy=0;exitPerimeter=0;entryX=0.9;entryY=0.035;entryDx=0;entryDy=0;entryPerimeter=0;" parent="4" source="20" target="92" edge="1">
                    <mxGeometry relative="1" as="geometry">
                        <mxPoint x="101" y="645.49" as="sourcePoint"/>
                        <Array as="points">
                            <mxPoint x="109" y="645"/>
                            <mxPoint x="163" y="645"/>
                            <mxPoint x="163" y="667"/>
                        </Array>
                        <mxPoint x="119" y="673" as="targetPoint"/>
                    </mxGeometry>
                </mxCell>
                <mxCell id="45" value="&lt;font color=&quot;#006600&quot;&gt;calculate_initial_market_times&lt;/font&gt;" style="edgeStyle=orthogonalEdgeStyle;html=1;align=left;spacingLeft=2;endArrow=block;rounded=0;exitX=0.9;exitY=0.01;exitDx=0;exitDy=0;exitPerimeter=0;fillColor=#008a00;strokeColor=#005700;" parent="4" edge="1">
                    <mxGeometry relative="1" as="geometry">
                        <mxPoint x="99" y="115.69999999999999" as="sourcePoint"/>
                        <Array as="points">
                            <mxPoint x="155" y="115.94999999999999"/>
                            <mxPoint x="155" y="129.95"/>
                            <mxPoint x="100" y="129.95"/>
                        </Array>
                        <mxPoint x="100" y="129.95" as="targetPoint"/>
                    </mxGeometry>
                </mxCell>
                <mxCell id="127" value="send_data_to_federation" style="edgeStyle=orthogonalEdgeStyle;html=1;align=left;spacingLeft=2;endArrow=block;rounded=0;exitX=0.95;exitY=0.561;exitDx=0;exitDy=0;exitPerimeter=0;entryX=0.9;entryY=0.01;entryDx=0;entryDy=0;entryPerimeter=0;" edge="1" parent="4">
                    <mxGeometry relative="1" as="geometry">
                        <mxPoint x="107" y="886.19" as="sourcePoint"/>
                        <Array as="points">
                            <mxPoint x="113" y="886.7"/>
                            <mxPoint x="169" y="885.7"/>
                            <mxPoint x="169" y="897.7"/>
                        </Array>
                        <mxPoint x="113" y="899.95" as="targetPoint"/>
                    </mxGeometry>
                </mxCell>
                <mxCell id="129" value="&lt;font color=&quot;#006600&quot;&gt;run_rt_ed_market&lt;/font&gt;" style="edgeStyle=orthogonalEdgeStyle;html=1;align=left;spacingLeft=2;endArrow=block;rounded=0;exitX=0.95;exitY=0.561;exitDx=0;exitDy=0;exitPerimeter=0;entryX=1.1;entryY=0.24;entryDx=0;entryDy=0;entryPerimeter=0;fillColor=#008a00;strokeColor=#005700;" edge="1" parent="4">
                    <mxGeometry x="0.2437" y="-4" relative="1" as="geometry">
                        <mxPoint x="101" y="840.49" as="sourcePoint"/>
                        <Array as="points">
                            <mxPoint x="107" y="841"/>
                            <mxPoint x="163" y="840"/>
                            <mxPoint x="163" y="852"/>
                        </Array>
                        <mxPoint x="118" y="852" as="targetPoint"/>
                        <mxPoint x="4" y="4" as="offset"/>
                    </mxGeometry>
                </mxCell>
                <mxCell id="109" value="&lt;font color=&quot;#006600&quot;&gt;run_reserve_market&lt;/font&gt;" style="edgeStyle=orthogonalEdgeStyle;html=1;align=left;spacingLeft=2;endArrow=block;rounded=0;entryX=1.1;entryY=0.24;entryDx=0;entryDy=0;entryPerimeter=0;fillColor=#008a00;strokeColor=#005700;" parent="4" target="107" edge="1" source="4">
                    <mxGeometry relative="1" as="geometry">
                        <mxPoint x="215" y="770" as="sourcePoint"/>
                        <Array as="points">
                            <mxPoint x="195" y="780"/>
                        </Array>
                        <mxPoint x="112" y="778.3499999999999" as="targetPoint"/>
                    </mxGeometry>
                </mxCell>
                <mxCell id="122" value="&lt;font color=&quot;#006600&quot;&gt;run_da_uc_market&lt;/font&gt;" style="edgeStyle=orthogonalEdgeStyle;html=1;align=left;spacingLeft=2;endArrow=block;rounded=0;exitX=0.95;exitY=0.561;exitDx=0;exitDy=0;exitPerimeter=0;entryX=0.9;entryY=0.01;entryDx=0;entryDy=0;entryPerimeter=0;fillColor=#008a00;strokeColor=#005700;" parent="4" edge="1">
                    <mxGeometry relative="1" as="geometry">
                        <mxPoint x="106" y="740.49" as="sourcePoint"/>
                        <Array as="points">
                            <mxPoint x="112" y="741"/>
                            <mxPoint x="168" y="740"/>
                            <mxPoint x="168" y="752"/>
                        </Array>
                        <mxPoint x="112" y="754.1500000000001" as="targetPoint"/>
                    </mxGeometry>
                </mxCell>
                <mxCell id="130" value="&lt;font color=&quot;#006600&quot;&gt;generate_wind_forecasts&lt;/font&gt;" style="edgeStyle=orthogonalEdgeStyle;html=1;align=left;spacingLeft=2;endArrow=block;rounded=0;exitX=0.95;exitY=0.561;exitDx=0;exitDy=0;exitPerimeter=0;entryX=1.1;entryY=0.16;entryDx=0;entryDy=0;entryPerimeter=0;fillColor=#008a00;strokeColor=#005700;" edge="1" parent="4">
                    <mxGeometry relative="1" as="geometry">
                        <mxPoint x="111" y="710.49" as="sourcePoint"/>
                        <Array as="points">
                            <mxPoint x="117" y="711"/>
                            <mxPoint x="173" y="710"/>
                            <mxPoint x="173" y="722"/>
                        </Array>
                        <mxPoint x="114" y="728.4000000000001" as="targetPoint"/>
                    </mxGeometry>
                </mxCell>
                <mxCell id="6" value="" style="fontSize=12;html=1;endArrow=blockThin;endFill=1;dashed=1;exitX=1;exitY=0.006;exitDx=0;exitDy=0;exitPerimeter=0;" parent="1" source="5" target="4" edge="1">
                    <mxGeometry width="160" relative="1" as="geometry">
                        <mxPoint x="620" y="390" as="sourcePoint"/>
                        <mxPoint x="270" y="250" as="targetPoint"/>
                    </mxGeometry>
                </mxCell>
                <mxCell id="8" value="&amp;lt;&amp;lt;create&amp;gt;&amp;gt;" style="edgeLabel;html=1;align=center;verticalAlign=middle;resizable=0;points=[];" parent="6" vertex="1" connectable="0">
                    <mxGeometry x="-0.2541" y="4" relative="1" as="geometry">
                        <mxPoint x="4" as="offset"/>
                    </mxGeometry>
                </mxCell>
                <mxCell id="10" value="" style="fontSize=12;html=1;endArrow=blockThin;endFill=1;entryX=0.2;entryY=0.007;entryDx=0;entryDy=0;entryPerimeter=0;" parent="1" source="2" target="9" edge="1">
                    <mxGeometry width="160" relative="1" as="geometry">
                        <mxPoint x="520" y="320" as="sourcePoint"/>
                        <mxPoint x="674.5" y="334" as="targetPoint"/>
                        <Array as="points"/>
                    </mxGeometry>
                </mxCell>
                <mxCell id="11" value="create_federate" style="edgeLabel;html=1;align=center;verticalAlign=middle;resizable=0;points=[];" parent="10" vertex="1" connectable="0">
                    <mxGeometry x="-0.2541" y="4" relative="1" as="geometry">
                        <mxPoint x="18" y="1" as="offset"/>
                    </mxGeometry>
                </mxCell>
                <mxCell id="23" value="&lt;font color=&quot;#990000&quot;&gt;calculate_next_requested_time&lt;/font&gt;" style="edgeStyle=orthogonalEdgeStyle;html=1;align=left;spacingLeft=2;endArrow=block;rounded=0;exitX=0.95;exitY=0.561;exitDx=0;exitDy=0;exitPerimeter=0;entryX=1.1;entryY=0.867;entryDx=0;entryDy=0;entryPerimeter=0;fillColor=#a20025;strokeColor=#6F0000;" parent="1" edge="1">
                    <mxGeometry relative="1" as="geometry">
                        <mxPoint x="422" y="645.49" as="sourcePoint"/>
                        <Array as="points">
                            <mxPoint x="427.5" y="646"/>
                            <mxPoint x="483.5" y="645"/>
                            <mxPoint x="483.5" y="673"/>
                        </Array>
                        <mxPoint x="423.5" y="673.03" as="targetPoint"/>
                    </mxGeometry>
                </mxCell>
                <mxCell id="24" value="request_time" style="edgeStyle=orthogonalEdgeStyle;html=1;align=left;spacingLeft=2;endArrow=block;rounded=0;exitX=0.95;exitY=0.561;exitDx=0;exitDy=0;exitPerimeter=0;entryX=1.1;entryY=0.867;entryDx=0;entryDy=0;entryPerimeter=0;" parent="1" edge="1">
                    <mxGeometry relative="1" as="geometry">
                        <mxPoint x="421" y="694.49" as="sourcePoint"/>
                        <Array as="points">
                            <mxPoint x="426.5" y="695"/>
                            <mxPoint x="482.5" y="694"/>
                            <mxPoint x="482.5" y="722"/>
                        </Array>
                        <mxPoint x="422.5" y="722.03" as="targetPoint"/>
                    </mxGeometry>
                </mxCell>
                <mxCell id="25" value="get_data_from_federation" style="edgeStyle=orthogonalEdgeStyle;html=1;align=left;spacingLeft=2;endArrow=block;rounded=0;exitX=0.95;exitY=0.561;exitDx=0;exitDy=0;exitPerimeter=0;entryX=1.1;entryY=0.867;entryDx=0;entryDy=0;entryPerimeter=0;" parent="1" edge="1">
                    <mxGeometry relative="1" as="geometry">
                        <mxPoint x="422" y="735.49" as="sourcePoint"/>
                        <Array as="points">
                            <mxPoint x="427.5" y="736"/>
                            <mxPoint x="483.5" y="735"/>
                            <mxPoint x="483.5" y="763"/>
                        </Array>
                        <mxPoint x="423.5" y="763.03" as="targetPoint"/>
                    </mxGeometry>
                </mxCell>
                <mxCell id="43" value="&lt;font color=&quot;#cc0000&quot;&gt;Federate.py overloaded method&lt;/font&gt;" style="text;html=1;strokeColor=none;fillColor=none;align=center;verticalAlign=middle;whiteSpace=wrap;rounded=0;" parent="1" vertex="1">
                    <mxGeometry x="290" y="80" width="210" height="30" as="geometry"/>
                </mxCell>
                <mxCell id="16" value="" style="fontSize=12;html=1;endArrow=blockThin;endFill=1;" parent="1" target="4" edge="1">
                    <mxGeometry width="160" relative="1" as="geometry">
                        <mxPoint x="205" y="450" as="sourcePoint"/>
                        <mxPoint x="350" y="450" as="targetPoint"/>
                        <Array as="points">
                            <mxPoint x="210.5" y="450"/>
                        </Array>
                    </mxGeometry>
                </mxCell>
                <mxCell id="17" value="run_cosim_loop" style="edgeLabel;html=1;align=center;verticalAlign=middle;resizable=0;points=[];" parent="16" vertex="1" connectable="0">
                    <mxGeometry x="-0.2541" y="4" relative="1" as="geometry">
                        <mxPoint x="65" y="-6" as="offset"/>
                    </mxGeometry>
                </mxCell>
                <mxCell id="48" value="&lt;font color=&quot;#006600&quot;&gt;read_power_system_model&lt;/font&gt;" style="edgeStyle=orthogonalEdgeStyle;html=1;align=left;spacingLeft=2;endArrow=block;rounded=0;exitX=0.95;exitY=0.561;exitDx=0;exitDy=0;exitPerimeter=0;entryX=1.1;entryY=0.867;entryDx=0;entryDy=0;entryPerimeter=0;fillColor=#008a00;strokeColor=#005700;" parent="1" edge="1">
                    <mxGeometry x="0.0033" relative="1" as="geometry">
                        <mxPoint x="416" y="480.48" as="sourcePoint"/>
                        <Array as="points">
                            <mxPoint x="421.5" y="480.99"/>
                            <mxPoint x="477.5" y="479.99"/>
                            <mxPoint x="477.5" y="507.99"/>
                        </Array>
                        <mxPoint x="417.5" y="508.02" as="targetPoint"/>
                        <mxPoint as="offset"/>
                    </mxGeometry>
                </mxCell>
                <mxCell id="49" value="&lt;font color=&quot;#006600&quot;&gt;initialize_power_and_market_model&lt;/font&gt;" style="edgeStyle=orthogonalEdgeStyle;html=1;align=left;spacingLeft=2;endArrow=block;rounded=0;exitX=0.95;exitY=0.561;exitDx=0;exitDy=0;exitPerimeter=0;entryX=1.1;entryY=0.867;entryDx=0;entryDy=0;entryPerimeter=0;fillColor=#008a00;strokeColor=#005700;" parent="1" edge="1">
                    <mxGeometry relative="1" as="geometry">
                        <mxPoint x="414" y="520.48" as="sourcePoint"/>
                        <Array as="points">
                            <mxPoint x="419.5" y="520.99"/>
                            <mxPoint x="475.5" y="519.99"/>
                            <mxPoint x="475.5" y="547.99"/>
                        </Array>
                        <mxPoint x="415.5" y="548.02" as="targetPoint"/>
                    </mxGeometry>
                </mxCell>
                <mxCell id="50" value="&lt;font color=&quot;#006600&quot;&gt;New methods particular to EnergyMarket&lt;/font&gt;" style="text;html=1;strokeColor=none;fillColor=none;align=center;verticalAlign=middle;whiteSpace=wrap;rounded=0;" parent="1" vertex="1">
                    <mxGeometry x="280" y="100" width="280" height="30" as="geometry"/>
                </mxCell>
                <mxCell id="51" value="osw_da_market: OSWMarket" style="shape=umlLifeline;perimeter=lifelinePerimeter;whiteSpace=wrap;html=1;container=1;collapsible=0;recursiveResize=0;outlineConnect=0;size=40;" parent="1" vertex="1">
                    <mxGeometry x="650" y="220" width="150" height="880" as="geometry"/>
                </mxCell>
                <mxCell id="54" value="" style="html=1;points=[];perimeter=orthogonalPerimeter;" parent="51" vertex="1">
                    <mxGeometry x="70" y="680" width="10" height="60" as="geometry"/>
                </mxCell>
                <mxCell id="64" value="" style="html=1;points=[];perimeter=orthogonalPerimeter;" parent="51" vertex="1">
                    <mxGeometry x="70" y="100" width="10" height="40" as="geometry"/>
                </mxCell>
                <mxCell id="125" value="__init__" style="edgeStyle=orthogonalEdgeStyle;html=1;align=left;spacingLeft=2;endArrow=block;rounded=0;exitX=0.9;exitY=0.01;exitDx=0;exitDy=0;exitPerimeter=0;entryX=1.1;entryY=0.25;entryDx=0;entryDy=0;entryPerimeter=0;" parent="51" target="64" edge="1">
                    <mxGeometry relative="1" as="geometry">
                        <mxPoint x="70" y="40.00000000000006" as="sourcePoint"/>
                        <Array as="points">
                            <mxPoint x="126" y="40"/>
                            <mxPoint x="126" y="110"/>
                        </Array>
                        <mxPoint x="97" y="79.55000000000001" as="targetPoint"/>
                    </mxGeometry>
                </mxCell>
                <mxCell id="131" value="move_to_next_state" style="edgeStyle=orthogonalEdgeStyle;html=1;align=left;spacingLeft=2;endArrow=block;rounded=0;exitX=0.95;exitY=0.561;exitDx=0;exitDy=0;exitPerimeter=0;entryX=0.9;entryY=0.01;entryDx=0;entryDy=0;entryPerimeter=0;" edge="1" parent="51">
                    <mxGeometry relative="1" as="geometry">
                        <mxPoint x="80" y="690.49" as="sourcePoint"/>
                        <Array as="points">
                            <mxPoint x="86" y="691"/>
                            <mxPoint x="142" y="690"/>
                            <mxPoint x="142" y="702"/>
                        </Array>
                        <mxPoint x="86" y="704.25" as="targetPoint"/>
                    </mxGeometry>
                </mxCell>
                <mxCell id="134" value="calculate_next_state_time" style="edgeStyle=orthogonalEdgeStyle;html=1;align=left;spacingLeft=2;endArrow=block;rounded=0;exitX=0.95;exitY=0.561;exitDx=0;exitDy=0;exitPerimeter=0;entryX=0.9;entryY=0.01;entryDx=0;entryDy=0;entryPerimeter=0;" edge="1" parent="51">
                    <mxGeometry relative="1" as="geometry">
                        <mxPoint x="80" y="720.49" as="sourcePoint"/>
                        <Array as="points">
                            <mxPoint x="86" y="721"/>
                            <mxPoint x="142" y="720"/>
                            <mxPoint x="142" y="732"/>
                        </Array>
                        <mxPoint x="86" y="734.25" as="targetPoint"/>
                    </mxGeometry>
                </mxCell>
                <mxCell id="68" value="osw_reserves_market: OSWMarket" style="shape=umlLifeline;perimeter=lifelinePerimeter;whiteSpace=wrap;html=1;container=1;collapsible=0;recursiveResize=0;outlineConnect=0;size=40;" parent="1" vertex="1">
                    <mxGeometry x="890" y="240" width="130" height="880" as="geometry"/>
                </mxCell>
                <mxCell id="74" value="" style="html=1;points=[];perimeter=orthogonalPerimeter;" parent="68" vertex="1">
                    <mxGeometry x="60" y="90" width="10" height="40" as="geometry"/>
                </mxCell>
                <mxCell id="70" value="" style="html=1;points=[];perimeter=orthogonalPerimeter;" parent="68" vertex="1">
                    <mxGeometry x="60" y="740" width="10" height="60" as="geometry"/>
                </mxCell>
                <mxCell id="124" value="__init__" style="edgeStyle=orthogonalEdgeStyle;html=1;align=left;spacingLeft=2;endArrow=block;rounded=0;exitX=0.9;exitY=0.01;exitDx=0;exitDy=0;exitPerimeter=0;entryX=1;entryY=0.225;entryDx=0;entryDy=0;entryPerimeter=0;" parent="68" target="74" edge="1">
                    <mxGeometry relative="1" as="geometry">
                        <mxPoint x="60" y="40.00000000000006" as="sourcePoint"/>
                        <Array as="points">
                            <mxPoint x="116" y="40"/>
                            <mxPoint x="116" y="99"/>
                        </Array>
                        <mxPoint x="87" y="79.55000000000001" as="targetPoint"/>
                    </mxGeometry>
                </mxCell>
                <mxCell id="132" value="move_to_next_state" style="edgeStyle=orthogonalEdgeStyle;html=1;align=left;spacingLeft=2;endArrow=block;rounded=0;exitX=0.95;exitY=0.561;exitDx=0;exitDy=0;exitPerimeter=0;entryX=0.9;entryY=0.01;entryDx=0;entryDy=0;entryPerimeter=0;" edge="1" parent="68">
                    <mxGeometry relative="1" as="geometry">
                        <mxPoint x="70" y="750.49" as="sourcePoint"/>
                        <Array as="points">
                            <mxPoint x="76" y="751"/>
                            <mxPoint x="130" y="750"/>
                            <mxPoint x="130" y="764"/>
                        </Array>
                        <mxPoint x="76" y="764.25" as="targetPoint"/>
                    </mxGeometry>
                </mxCell>
                <mxCell id="135" value="calculate_next_state_time" style="edgeStyle=orthogonalEdgeStyle;html=1;align=left;spacingLeft=2;endArrow=block;rounded=0;exitX=0.95;exitY=0.561;exitDx=0;exitDy=0;exitPerimeter=0;entryX=0.9;entryY=0.01;entryDx=0;entryDy=0;entryPerimeter=0;" edge="1" parent="68">
                    <mxGeometry relative="1" as="geometry">
                        <mxPoint x="68" y="780.49" as="sourcePoint"/>
                        <Array as="points">
                            <mxPoint x="74" y="781"/>
                            <mxPoint x="130" y="780"/>
                            <mxPoint x="130" y="792"/>
                        </Array>
                        <mxPoint x="74" y="794.25" as="targetPoint"/>
                    </mxGeometry>
                </mxCell>
                <mxCell id="76" value="osw_rt_market: OSWMarket" style="shape=umlLifeline;perimeter=lifelinePerimeter;whiteSpace=wrap;html=1;container=1;collapsible=0;recursiveResize=0;outlineConnect=0;size=40;" parent="1" vertex="1">
                    <mxGeometry x="1080" y="260" width="140" height="880" as="geometry"/>
                </mxCell>
                <mxCell id="82" value="" style="html=1;points=[];perimeter=orthogonalPerimeter;" parent="76" vertex="1">
                    <mxGeometry x="65" y="70" width="10" height="40" as="geometry"/>
                </mxCell>
                <mxCell id="83" value="__init__" style="edgeStyle=orthogonalEdgeStyle;html=1;align=left;spacingLeft=2;endArrow=block;rounded=0;exitX=0.9;exitY=0.01;exitDx=0;exitDy=0;exitPerimeter=0;entryX=1.4;entryY=0.275;entryDx=0;entryDy=0;entryPerimeter=0;" parent="76" target="82" edge="1">
                    <mxGeometry x="0.3574" y="2" relative="1" as="geometry">
                        <mxPoint x="52" y="41.44999999999999" as="sourcePoint"/>
                        <Array as="points">
                            <mxPoint x="108" y="42"/>
                            <mxPoint x="108" y="81"/>
                        </Array>
                        <mxPoint x="53" y="69.94999999999999" as="targetPoint"/>
                        <mxPoint y="1" as="offset"/>
                    </mxGeometry>
                </mxCell>
                <mxCell id="78" value="" style="html=1;points=[];perimeter=orthogonalPerimeter;" parent="76" vertex="1">
                    <mxGeometry x="65" y="800" width="10" height="60" as="geometry"/>
                </mxCell>
                <mxCell id="133" value="move_to_next_state" style="edgeStyle=orthogonalEdgeStyle;html=1;align=left;spacingLeft=2;endArrow=block;rounded=0;exitX=0.95;exitY=0.561;exitDx=0;exitDy=0;exitPerimeter=0;entryX=0.9;entryY=0.01;entryDx=0;entryDy=0;entryPerimeter=0;" edge="1" parent="76">
                    <mxGeometry relative="1" as="geometry">
                        <mxPoint x="75" y="810.49" as="sourcePoint"/>
                        <Array as="points">
                            <mxPoint x="81" y="811"/>
                            <mxPoint x="137" y="810"/>
                            <mxPoint x="137" y="824"/>
                        </Array>
                        <mxPoint x="81" y="824.25" as="targetPoint"/>
                    </mxGeometry>
                </mxCell>
                <mxCell id="136" value="calculate_next_state_time" style="edgeStyle=orthogonalEdgeStyle;html=1;align=left;spacingLeft=2;endArrow=block;rounded=0;exitX=0.95;exitY=0.561;exitDx=0;exitDy=0;exitPerimeter=0;entryX=0.9;entryY=0.01;entryDx=0;entryDy=0;entryPerimeter=0;" edge="1" parent="76">
                    <mxGeometry relative="1" as="geometry">
                        <mxPoint x="75" y="840.49" as="sourcePoint"/>
                        <Array as="points">
                            <mxPoint x="81" y="841"/>
                            <mxPoint x="137" y="840"/>
                            <mxPoint x="137" y="852"/>
                        </Array>
                        <mxPoint x="81" y="854.25" as="targetPoint"/>
                    </mxGeometry>
                </mxCell>
                <mxCell id="86" value="" style="endArrow=classic;html=1;fontColor=#990000;dashed=1;exitX=0.95;exitY=0.3;exitDx=0;exitDy=0;exitPerimeter=0;" parent="1" source="44" target="51" edge="1">
                    <mxGeometry width="50" height="50" relative="1" as="geometry">
                        <mxPoint x="367" y="240" as="sourcePoint"/>
                        <mxPoint x="610" y="550" as="targetPoint"/>
                    </mxGeometry>
                </mxCell>
                <mxCell id="87" value="&lt;font color=&quot;#ffffff&quot;&gt;&amp;lt;&amp;lt;create&amp;gt;&amp;gt;&lt;/font&gt;" style="edgeLabel;html=1;align=center;verticalAlign=middle;resizable=0;points=[];fontColor=#990000;" parent="86" vertex="1" connectable="0">
                    <mxGeometry x="0.1841" relative="1" as="geometry">
                        <mxPoint as="offset"/>
                    </mxGeometry>
                </mxCell>
                <mxCell id="88" value="" style="endArrow=classic;html=1;fontColor=#990000;dashed=1;exitX=0.95;exitY=0.483;exitDx=0;exitDy=0;exitPerimeter=0;" parent="1" source="44" target="68" edge="1">
                    <mxGeometry width="50" height="50" relative="1" as="geometry">
                        <mxPoint x="377" y="250" as="sourcePoint"/>
                        <mxPoint x="709.5" y="290" as="targetPoint"/>
                    </mxGeometry>
                </mxCell>
                <mxCell id="89" value="&lt;font color=&quot;#ffffff&quot;&gt;&amp;lt;&amp;lt;create&amp;gt;&amp;gt;&lt;/font&gt;" style="edgeLabel;html=1;align=center;verticalAlign=middle;resizable=0;points=[];fontColor=#990000;" parent="88" vertex="1" connectable="0">
                    <mxGeometry x="0.1841" relative="1" as="geometry">
                        <mxPoint x="133" y="-1" as="offset"/>
                    </mxGeometry>
                </mxCell>
                <mxCell id="90" value="" style="endArrow=classic;html=1;fontColor=#990000;dashed=1;exitX=1.25;exitY=0.617;exitDx=0;exitDy=0;exitPerimeter=0;" parent="1" source="44" target="76" edge="1">
                    <mxGeometry width="50" height="50" relative="1" as="geometry">
                        <mxPoint x="378" y="266.79999999999995" as="sourcePoint"/>
                        <mxPoint x="889.5" y="290" as="targetPoint"/>
                    </mxGeometry>
                </mxCell>
                <mxCell id="91" value="&lt;font color=&quot;#ffffff&quot;&gt;&amp;lt;&amp;lt;create&amp;gt;&amp;gt;&lt;/font&gt;" style="edgeLabel;html=1;align=center;verticalAlign=middle;resizable=0;points=[];fontColor=#990000;" parent="90" vertex="1" connectable="0">
                    <mxGeometry x="0.1841" relative="1" as="geometry">
                        <mxPoint x="223" y="5" as="offset"/>
                    </mxGeometry>
                </mxCell>
                <mxCell id="93" value="" style="fontSize=12;html=1;endArrow=blockThin;endFill=1;exitX=1;exitY=0.64;exitDx=0;exitDy=0;exitPerimeter=0;entryX=-0.1;entryY=0.1;entryDx=0;entryDy=0;entryPerimeter=0;" parent="1" source="105" target="54" edge="1">
                    <mxGeometry width="160" relative="1" as="geometry">
                        <mxPoint x="450" y="830" as="sourcePoint"/>
                        <mxPoint x="692" y="825.71" as="targetPoint"/>
                    </mxGeometry>
                </mxCell>
                <mxCell id="94" value="update_market" style="edgeLabel;html=1;align=center;verticalAlign=middle;resizable=0;points=[];" parent="93" vertex="1" connectable="0">
                    <mxGeometry x="-0.2541" y="4" relative="1" as="geometry">
                        <mxPoint x="115" y="-6" as="offset"/>
                    </mxGeometry>
                </mxCell>
                <mxCell id="118" value="" style="fontSize=12;html=1;endArrow=blockThin;endFill=1;entryX=-0.4;entryY=0.2;entryDx=0;entryDy=0;entryPerimeter=0;exitX=1.1;exitY=0.48;exitDx=0;exitDy=0;exitPerimeter=0;" parent="1" source="107" target="70" edge="1">
                    <mxGeometry width="160" relative="1" as="geometry">
                        <mxPoint x="380" y="920" as="sourcePoint"/>
                        <mxPoint x="692" y="919.5" as="targetPoint"/>
                    </mxGeometry>
                </mxCell>
                <mxCell id="119" value="update_market" style="edgeLabel;html=1;align=center;verticalAlign=middle;resizable=0;points=[];" parent="118" vertex="1" connectable="0">
                    <mxGeometry x="-0.2541" y="4" relative="1" as="geometry">
                        <mxPoint x="277" y="3" as="offset"/>
                    </mxGeometry>
                </mxCell>
                <mxCell id="120" value="" style="fontSize=12;html=1;endArrow=blockThin;endFill=1;entryX=-0.1;entryY=0.05;entryDx=0;entryDy=0;entryPerimeter=0;exitX=1.1;exitY=0.65;exitDx=0;exitDy=0;exitPerimeter=0;" parent="1" target="78" edge="1" source="110">
                    <mxGeometry width="160" relative="1" as="geometry">
                        <mxPoint x="430" y="970" as="sourcePoint"/>
                        <mxPoint x="1150" y="980" as="targetPoint"/>
                    </mxGeometry>
                </mxCell>
                <mxCell id="121" value="update_market" style="edgeLabel;html=1;align=center;verticalAlign=middle;resizable=0;points=[];" parent="120" vertex="1" connectable="0">
                    <mxGeometry x="-0.2541" y="4" relative="1" as="geometry">
                        <mxPoint x="384" y="16" as="offset"/>
                    </mxGeometry>
                </mxCell>
                <mxCell id="123" value="&lt;font color=&quot;#006600&quot;&gt;update_power_system_and_market_state&lt;/font&gt;" style="edgeStyle=orthogonalEdgeStyle;html=1;align=left;spacingLeft=2;endArrow=block;rounded=0;exitX=0.95;exitY=0.561;exitDx=0;exitDy=0;exitPerimeter=0;entryX=1.1;entryY=0.16;entryDx=0;entryDy=0;entryPerimeter=0;fillColor=#008a00;strokeColor=#005700;" parent="1" target="92" edge="1">
                    <mxGeometry relative="1" as="geometry">
                        <mxPoint x="424" y="820.49" as="sourcePoint"/>
                        <Array as="points">
                            <mxPoint x="430" y="821"/>
                            <mxPoint x="486" y="820"/>
                            <mxPoint x="486" y="832"/>
                        </Array>
                        <mxPoint x="430" y="834.1500000000001" as="targetPoint"/>
                    </mxGeometry>
                </mxCell>
            </root>
        </mxGraphModel>
    </diagram>
</mxfile>